<?xml version="1.0" encoding="UTF-8"?>
<svg width="29px" height="29px" viewBox="0 0 29 29" version="1.1" xmlns="http://www.w3.org/2000/svg" xmlns:xlink="http://www.w3.org/1999/xlink">
    <!-- Generator: Sketch 52.4 (67378) - http://www.bohemiancoding.com/sketch -->
    <title>if_sun27_284260</title>
    <desc>Created with Sketch.</desc>
    <g id="*icons" stroke="none" stroke-width="1" fill="none" fill-rule="evenodd">
        <g id="if_sun27_284260" fill="#FFFFFF" fill-rule="nonzero">
            <path d="M14.4996184,4.55338158 C14.9208816,4.55338158 15.2627763,4.21148684 15.2627763,3.79022368 L15.2627763,0.7975 C15.2627763,0.376236842 14.9208816,0.0343421053 14.4996184,0.0343421053 C14.0783553,0.0343421053 13.7364605,0.376236842 13.7364605,0.7975 L13.7364605,3.79022368 C13.7364605,4.21148684 14.0783553,4.55338158 14.4996184,4.55338158 Z" id="Shape"></path>
            <path d="M14.4996184,24.4489079 C14.0783553,24.4489079 13.7364605,24.7908026 13.7364605,25.2120658 L13.7364605,28.2025 C13.7364605,28.6237632 14.0783553,28.9656579 14.4996184,28.9656579 C14.9208816,28.9656579 15.2627763,28.6237632 15.2627763,28.2025 L15.2627763,25.2120658 C15.2627763,24.7908026 14.9212632,24.4489079 14.4996184,24.4489079 Z" id="Shape"></path>
            <path d="M6.38648684,7.46597368 C6.53530263,7.61517105 6.73067105,7.68957895 6.92603947,7.68957895 C7.12140789,7.68957895 7.31639474,7.61517105 7.46559211,7.46597368 C7.76360526,7.16796053 7.76360526,6.68488158 7.46559211,6.38686842 L5.3505,4.27139474 C5.05286842,3.97338158 4.56940789,3.97338158 4.27139474,4.27139474 C3.97338158,4.56940789 3.97338158,5.05248684 4.27139474,5.3505 L6.38648684,7.46597368 Z" id="Shape"></path>
            <path d="M22.6135132,21.5344079 C22.3155,21.2363947 21.8320395,21.2367763 21.5340263,21.5340263 C21.2360132,21.8320395 21.2360132,22.3151184 21.5336447,22.6135132 L23.6491184,24.7308947 C23.7983158,24.8800921 23.9936842,24.9545 24.1890526,24.9545 C24.3844211,24.9545 24.5794079,24.8800921 24.7286053,24.7312763 C25.0266184,24.4332632 25.0266184,23.9501842 24.7289868,23.6517895 L22.6135132,21.5344079 Z" id="Shape"></path>
            <path d="M4.55223684,14.5003816 C4.55223684,14.0791184 4.21034211,13.7372237 3.78907895,13.7372237 L0.7975,13.7372237 C0.376236842,13.7372237 0.0343421053,14.0791184 0.0343421053,14.5003816 C0.0343421053,14.9216447 0.376236842,15.2635395 0.7975,15.2635395 L3.78907895,15.2635395 C4.21034211,15.2635395 4.55223684,14.9216447 4.55223684,14.5003816 Z" id="Shape"></path>
            <path d="M28.2025,13.7372237 L25.2109211,13.7372237 C24.7896579,13.7372237 24.4477632,14.0791184 24.4477632,14.5003816 C24.4477632,14.9216447 24.7896579,15.2635395 25.2109211,15.2635395 L28.2025,15.2635395 C28.6237632,15.2635395 28.9656579,14.9216447 28.9656579,14.5003816 C28.9656579,14.0791184 28.6241447,13.7372237 28.2025,13.7372237 Z" id="Shape"></path>
            <path d="M6.38610526,21.5344079 L4.27063158,23.6517895 C3.973,23.9501842 3.973,24.4332632 4.27101316,24.7312763 C4.42021053,24.8800921 4.61519737,24.9545 4.81056579,24.9545 C5.00593421,24.9545 5.20130263,24.8800921 5.3505,24.7308947 L7.46597368,22.6135132 C7.76360526,22.3151184 7.76360526,21.8320395 7.46559211,21.5340263 C7.16719737,21.2360132 6.68411842,21.2363947 6.38610526,21.5344079 Z" id="Shape"></path>
            <path d="M22.0735789,7.68957895 C22.2689474,7.68957895 22.4639342,7.61517105 22.6131316,7.46597368 L24.7286053,5.3505 C25.0266184,5.05248684 25.0266184,4.56940789 24.7286053,4.27139474 C24.4305921,3.97338158 23.9475132,3.97338158 23.6495,4.27139474 L21.5340263,6.38686842 C21.2360132,6.68488158 21.2360132,7.16796053 21.5340263,7.46597368 C21.6828421,7.61517105 21.8782105,7.68957895 22.0735789,7.68957895 Z" id="Shape"></path>
            <path d="M14.5,5.96980263 C9.79551316,5.96980263 5.96827632,9.79665789 5.96827632,14.5003816 C5.96827632,19.2048684 9.79551316,23.0321053 14.5,23.0321053 C19.2044868,23.0321053 23.0317237,19.2048684 23.0317237,14.5003816 C23.0317237,9.79665789 19.2044868,5.96980263 14.5,5.96980263 Z M14.5,21.5057895 C10.6368947,21.5057895 7.49459211,18.3631053 7.49459211,14.5003816 C7.49459211,10.6380395 10.6372763,7.49611842 14.5,7.49611842 C18.3627237,7.49611842 21.5054079,10.6384211 21.5054079,14.5003816 C21.5054079,18.3631053 18.3627237,21.5057895 14.5,21.5057895 Z" id="Shape"></path>
        </g>
    </g>
</svg>