<?xml version="1.0" encoding="UTF-8"?>
<svg width="27px" height="18px" viewBox="0 0 27 18" version="1.1" xmlns="http://www.w3.org/2000/svg" xmlns:xlink="http://www.w3.org/1999/xlink">
    <!-- Generator: Sketch 52.4 (67378) - http://www.bohemiancoding.com/sketch -->
    <title>Group 11</title>
    <desc>Created with Sketch.</desc>
    <defs>
        <polygon id="path-1" points="0 0.000204558738 7.49261931 0.000204558738 7.49261931 15.2464933 0 15.2464933"></polygon>
        <polygon id="path-3" points="0.0516601696 0.000204558738 7.4892363 0.000204558738 7.4892363 15.2464933 0.0516601696 15.2464933"></polygon>
    </defs>
    <g id="Symbols" stroke="none" stroke-width="1" fill="none" fill-rule="evenodd">
        <g id="icon/mail" transform="translate(-1.000000, -6.000000)">
            <g id="Group-11" transform="translate(1.000000, 6.000000)">
                <path d="M25.0846682,0 L1.4416476,0 L12.1343727,10.5152864 C12.7670704,11.1389723 13.7592454,11.1389723 14.3909427,10.5152864 L25.0846682,0 Z" id="Fill-1" fill="#FFFFFF"></path>
                <g id="Group-5" transform="translate(0.000000, 1.220339)">
                    <mask id="mask-2" fill="white">
                        <use xlink:href="#path-1"></use>
                    </mask>
                    <g id="Clip-4"></g>
                    <polygon id="Fill-3" fill="#FFFFFF" mask="url(#mask-2)" points="7.49261931 7.36052016 -5.55301297e-06 0.000204558738 -5.55301297e-06 15.2464933"></polygon>
                </g>
                <g id="Group-8" transform="translate(19.029748, 1.220339)">
                    <mask id="mask-4" fill="white">
                        <use xlink:href="#path-3"></use>
                    </mask>
                    <g id="Clip-7"></g>
                    <polygon id="Fill-6" fill="#FFFFFF" mask="url(#mask-4)" points="0.0516601696 7.36052016 7.48924733 15.2464933 7.48924733 0.000204558738"></polygon>
                </g>
                <path d="M17.8100912,10.0677966 L15.8354298,12.000236 C15.1537572,12.6672854 14.2800664,13.0003135 13.4063757,13.0003135 C12.5326849,13.0003135 11.6589384,12.6672854 10.9772658,12.000236 L9.00266007,10.0677966 L1.4416476,18 L25.3729977,18 L17.8100912,10.0677966 Z" id="Fill-9" fill="#FFFFFF"></path>
            </g>
        </g>
    </g>
</svg>