<svg xmlns="http://www.w3.org/2000/svg" viewBox="0 0 304 64">
  <g fill="none" fill-rule="evenodd">
    <path fill="#026CB6" d="M54.831.324c0 12.799.375 23.307-2.411 31.93-7.296 22.466-23.033 31.292-24.837 31.292-1.834 0-17.54-8.887-24.837-31.292C0 23.671.345 13.174.345.324H54.83z"/>
    <path fill="#FDCC99" stroke="#231F20" stroke-linecap="round" stroke-linejoin="round" stroke-width=".281" d="M9.05 21.726c0-2.756-3.254-4.935-3.254-4.935l-1.013 1.348s2.442 1.48 2.442 3.587H9.05z"/>
    <path fill="#FDCC99" stroke="#231F20" stroke-linecap="round" stroke-linejoin="round" stroke-width=".281" d="M9.039 21.726c0-2.756 3.253-4.935 3.253-4.935l1.013 1.348s-2.442 1.48-2.442 3.587H9.039zM9.039 25.729c0 2.766 3.253 4.945 3.253 4.945l1.013-1.358s-2.442-1.47-2.442-3.587H9.039z"/>
    <path fill="#FDCC99" stroke="#231F20" stroke-linecap="round" stroke-linejoin="round" stroke-width=".281" d="M9.05 25.729c0 2.766-3.254 4.945-3.254 4.945l-1.013-1.358s2.442-1.47 2.442-3.587H9.05z"/>
    <path fill="#FDCC99" fill-rule="nonzero" stroke="#231F20" stroke-linecap="round" stroke-linejoin="round" stroke-width=".281" d="M11.37 21.695v4.054H6.718v-4.054h4.652zM8.107 22.81v1.855h1.915V22.81H8.107z"/>
    <path fill="#FDCC99" stroke="#231F20" stroke-linecap="round" stroke-linejoin="round" stroke-width=".281" d="M46.36 21.473c0-2.757-3.253-4.935-3.253-4.935l-1.013 1.347s2.493 1.48 2.493 3.588h1.773z"/>
    <path fill="#FDCC99" stroke="#231F20" stroke-linecap="round" stroke-linejoin="round" stroke-width=".281" d="M46.35 21.473c0-2.757 3.253-4.935 3.253-4.935l1.013 1.347s-2.442 1.48-2.442 3.588H46.35zM46.35 25.475c0 2.767 3.303 4.925 3.303 4.925l1.014-1.358s-2.442-1.47-2.442-3.587l-1.875.02z"/>
    <path fill="#FDCC99" stroke="#231F20" stroke-linecap="round" stroke-linejoin="round" stroke-width=".281" d="M46.36 25.475c0 2.767-3.253 4.945-3.253 4.945l-1.013-1.358s2.493-1.469 2.493-3.587h1.773z"/>
    <path fill="#FDCC99" fill-rule="nonzero" stroke="#231F20" stroke-linecap="round" stroke-linejoin="round" stroke-width=".281" d="M48.64 21.442v4.053h-4.61v-4.053h4.61zm-3.293 1.115v1.854h1.945v-1.854h-1.945z"/>
    <path fill="#FDCC99" stroke="#231F20" stroke-linecap="round" stroke-linejoin="round" stroke-width=".281" d="M33.926 21.412c0-2.767-3.252-4.945-3.252-4.945l-1.014 1.358s2.442 1.469 2.442 3.587h1.824z"/>
    <path fill="#FDCC99" stroke="#231F20" stroke-linecap="round" stroke-linejoin="round" stroke-width=".281" d="M33.916 21.412c0-2.767 3.253-4.945 3.253-4.945l1.013 1.358S35.7 19.253 35.7 21.412h-1.784zM33.916 25.414c0 2.767 3.253 4.945 3.253 4.945l1.013-1.357s-2.442-1.47-2.442-3.588h-1.824z"/>
    <path fill="#FDCC99" stroke="#231F20" stroke-linecap="round" stroke-linejoin="round" stroke-width=".281" d="M33.926 25.414c0 2.767-3.252 4.945-3.252 4.945l-1.014-1.357s2.442-1.47 2.442-3.588h1.824z"/>
    <path fill="#FDCC99" fill-rule="nonzero" stroke="#231F20" stroke-linecap="round" stroke-linejoin="round" stroke-width=".281" d="M36.247 21.381v4.054h-4.651V21.38h4.65zm-3.304 1.115v1.824h1.946v-1.824h-1.946z"/>
    <path fill="#FDCC99" stroke="#231F20" stroke-linecap="round" stroke-linejoin="round" stroke-width=".281" d="M21.483 21.726c0-2.756-3.253-4.935-3.253-4.935l-1.003 1.348s2.452 1.48 2.452 3.587h1.804z"/>
    <path fill="#FDCC99" stroke="#231F20" stroke-linecap="round" stroke-linejoin="round" stroke-width=".281" d="M21.473 21.726c0-2.756 3.252-4.935 3.252-4.935l1.014 1.348s-2.432 1.48-2.432 3.587h-1.834zM21.473 25.729c0 2.766 3.252 4.945 3.252 4.945l1.014-1.358s-2.432-1.47-2.432-3.587h-1.834z"/>
    <path fill="#FDCC99" stroke="#231F20" stroke-linecap="round" stroke-linejoin="round" stroke-width=".281" d="M21.483 25.729c0 2.766-3.253 4.945-3.253 4.945l-1.013-1.358s2.452-1.47 2.452-3.587h1.814z"/>
    <path fill="#FDCC99" fill-rule="nonzero" stroke="#231F20" stroke-linecap="round" stroke-linejoin="round" stroke-width=".281" d="M23.813 21.695v4.054h-4.661v-4.054h4.661zM20.51 22.81v1.855h1.945V22.81H20.51z"/>
    <path fill="#FDCC99" stroke="#231F20" stroke-linecap="round" stroke-linejoin="round" stroke-width=".281" d="M15.291 36.48c0-2.756-3.263-4.935-3.263-4.935l-1.013 1.348s2.452 1.48 2.452 3.587h1.824z"/>
    <path fill="#FDCC99" stroke="#231F20" stroke-linecap="round" stroke-linejoin="round" stroke-width=".281" d="M15.27 36.48c0-2.756 3.264-4.935 3.264-4.935l1.013 1.348s-2.493 1.47-2.493 3.587h-1.783zM15.27 40.473c0 2.766 3.264 4.945 3.264 4.945l1.013-1.358s-2.493-1.5-2.493-3.587h-1.783z"/>
    <path fill="#FDCC99" stroke="#231F20" stroke-linecap="round" stroke-linejoin="round" stroke-width=".281" d="M15.291 40.473c0 2.766-3.263 4.945-3.263 4.945l-1.013-1.358s2.452-1.47 2.452-3.587h1.824z"/>
    <path fill="#FDCC99" fill-rule="nonzero" stroke="#231F20" stroke-linecap="round" stroke-linejoin="round" stroke-width=".281" d="M17.612 36.48v4.053H12.95V36.48h4.662zm-3.304 1.115v1.854h1.905v-1.895l-1.905.04z"/>
    <path fill="#FDCC99" stroke="#231F20" stroke-linecap="round" stroke-linejoin="round" stroke-width=".281" d="M27.705 36.48c0-2.766-3.253-4.945-3.253-4.945l-1.014 1.358s2.443 1.47 2.443 3.587h1.824z"/>
    <path fill="#FDCC99" stroke="#231F20" stroke-linecap="round" stroke-linejoin="round" stroke-width=".281" d="M27.694 36.48c0-2.766 3.253-4.945 3.253-4.945l1.014 1.358s-2.483 1.48-2.483 3.587h-1.784zM27.694 40.533c0 2.767 3.253 4.945 3.253 4.945l1.014-1.357s-2.483-1.51-2.483-3.588h-1.784z"/>
    <path fill="#FDCC99" stroke="#231F20" stroke-linecap="round" stroke-linejoin="round" stroke-width=".281" d="M27.705 40.533c0 2.767-3.253 4.945-3.253 4.945l-1.014-1.357s2.443-1.47 2.443-3.588h1.824z"/>
    <path fill="#FDCC99" fill-rule="nonzero" stroke="#231F20" stroke-linecap="round" stroke-linejoin="round" stroke-width=".281" d="M30.025 36.48v4.053h-4.692V36.48h4.692zm-3.303 1.125v1.854h1.955v-1.885l-1.955.03z"/>
    <path fill="#FDCC99" stroke="#231F20" stroke-linecap="round" stroke-linejoin="round" stroke-width=".281" d="M40.128 36.48c0-2.766-3.253-4.945-3.253-4.945l-1.013 1.358s2.442 1.47 2.442 3.587h1.824z"/>
    <path fill="#FDCC99" stroke="#231F20" stroke-linecap="round" stroke-linejoin="round" stroke-width=".281" d="M40.118 36.48c0-2.766 3.253-4.945 3.253-4.945l1.013 1.358s-2.493 1.48-2.493 3.587h-1.773zM40.118 40.533c0 2.767 3.253 4.945 3.253 4.945l1.013-1.357s-2.493-1.51-2.493-3.588h-1.773z"/>
    <path fill="#FDCC99" stroke="#231F20" stroke-linecap="round" stroke-linejoin="round" stroke-width=".281" d="M40.128 40.533c0 2.767-3.253 4.945-3.253 4.945l-1.013-1.357s2.442-1.47 2.442-3.588h1.824z"/>
    <path fill="#FDCC99" fill-rule="nonzero" stroke="#231F20" stroke-linecap="round" stroke-linejoin="round" stroke-width=".281" d="M42.449 36.48v4.053h-4.662V36.48h4.662zm-3.304 1.125v1.854h1.946v-1.885l-1.946.03z"/>
    <path fill="#FDCC99" stroke="#231F20" stroke-linecap="round" stroke-linejoin="round" stroke-width=".281" d="M27.705 51.437c0-2.756-3.253-4.935-3.253-4.935l-1.014 1.348s2.443 1.48 2.443 3.587h1.824z"/>
    <path fill="#FDCC99" stroke="#231F20" stroke-linecap="round" stroke-linejoin="round" stroke-width=".281" d="M27.694 51.437c0-2.756 3.253-4.935 3.253-4.935l1.014 1.348s-2.443 1.48-2.443 3.587h-1.824zM27.694 55.44c0 2.766 3.253 4.945 3.253 4.945l1.014-1.358s-2.443-1.47-2.443-3.588h-1.824z"/>
    <path fill="#FDCC99" stroke="#231F20" stroke-linecap="round" stroke-linejoin="round" stroke-width=".281" d="M27.705 55.44c0 2.766-3.253 4.945-3.253 4.945l-1.014-1.358s2.443-1.47 2.443-3.588h1.824z"/>
    <path fill="#FDCC99" fill-rule="nonzero" stroke="#231F20" stroke-linecap="round" stroke-linejoin="round" stroke-width=".281" d="M30.025 51.406v4.054h-4.692v-4.054h4.692zm-3.303 1.115v1.854h1.955v-1.854h-1.955z"/>
    <path fill="#FDCC99" stroke="#231F20" stroke-linecap="round" stroke-linejoin="round" stroke-width=".281" d="M9.05 6.941c0-2.766-3.254-4.914-3.254-4.914L4.783 3.385S7.266 4.823 7.266 6.94h1.783z"/>
    <path fill="#FDCC99" stroke="#231F20" stroke-linecap="round" stroke-linejoin="round" stroke-width=".281" d="M9.039 6.941c0-2.766 3.253-4.914 3.253-4.914l1.013 1.358s-2.442 1.469-2.442 3.587l-1.824-.03zM9.039 10.944c0 2.756 3.253 4.935 3.253 4.935l1.013-1.348s-2.442-1.48-2.442-3.587H9.039z"/>
    <path fill="#FDCC99" stroke="#231F20" stroke-linecap="round" stroke-linejoin="round" stroke-width=".281" d="M9.05 10.944c0 2.756-3.254 4.935-3.254 4.935L4.783 14.53s2.442-1.48 2.442-3.587H9.05z"/>
    <path fill="#FDCC99" fill-rule="nonzero" stroke="#231F20" stroke-linecap="round" stroke-linejoin="round" stroke-width=".281" d="M11.37 6.9v4.054H6.718V6.901h4.652zM8.107 8.016V9.87h1.915V8.015H8.107z"/>
    <path fill="#FDCC99" stroke="#231F20" stroke-linecap="round" stroke-linejoin="round" stroke-width=".281" d="M46.36 6.688c0-2.766-3.253-4.945-3.253-4.945L42.094 3.1s2.493 1.47 2.493 3.587h1.773z"/>
    <path fill="#FDCC99" stroke="#231F20" stroke-linecap="round" stroke-linejoin="round" stroke-width=".281" d="M46.35 6.688c0-2.766 3.303-4.945 3.303-4.945L50.667 3.1s-2.534 1.47-2.534 3.587H46.35zM46.35 10.69c0 2.757 3.253 4.936 3.253 4.936l1.013-1.348s-2.442-1.48-2.442-3.587H46.35z"/>
    <path fill="#FDCC99" stroke="#231F20" stroke-linecap="round" stroke-linejoin="round" stroke-width=".281" d="M46.36 10.69c0 2.757-3.253 4.936-3.253 4.936l-1.013-1.348s2.493-1.48 2.493-3.587h1.773z"/>
    <path fill="#FDCC99" fill-rule="nonzero" stroke="#231F20" stroke-linecap="round" stroke-linejoin="round" stroke-width=".281" d="M48.64 6.647v4.054h-4.61V6.647h4.61zm-3.293 1.115v1.855h1.945V7.762h-1.945z"/>
    <path fill="#FDCC99" stroke="#231F20" stroke-linecap="round" stroke-linejoin="round" stroke-width=".281" d="M33.926 6.617c0-2.756-3.252-4.935-3.252-4.935L29.7 3.04s2.442 1.48 2.442 3.587l1.783-.01z"/>
    <path fill="#FDCC99" stroke="#231F20" stroke-linecap="round" stroke-linejoin="round" stroke-width=".281" d="M33.916 6.617c0-2.756 3.253-4.935 3.253-4.935l1.013 1.348S35.74 4.51 35.74 6.617h-1.824zM33.916 10.62c0 2.766 3.253 4.945 3.253 4.945l1.013-1.358s-2.442-1.47-2.442-3.587h-1.824z"/>
    <path fill="#FDCC99" stroke="#231F20" stroke-linecap="round" stroke-linejoin="round" stroke-width=".281" d="M33.926 10.62c0 2.766-3.252 4.945-3.252 4.945l-1.014-1.358s2.442-1.47 2.442-3.587h1.824z"/>
    <path fill="#FDCC99" fill-rule="nonzero" stroke="#231F20" stroke-linecap="round" stroke-linejoin="round" stroke-width=".281" d="M36.247 6.587v4.053h-4.651V6.587h4.65zM32.943 7.7v1.855h1.946V7.7h-1.946z"/>
    <path fill="#FDCC99" stroke="#231F20" stroke-linecap="round" stroke-linejoin="round" stroke-width=".281" d="M21.483 6.941c0-2.766-3.243-4.914-3.243-4.914l-1.013 1.327s2.452 1.47 2.452 3.587h1.804z"/>
    <path fill="#FDCC99" stroke="#231F20" stroke-linecap="round" stroke-linejoin="round" stroke-width=".281" d="M21.473 6.941c0-2.766 3.252-4.914 3.252-4.914l1.014 1.358s-2.432 1.438-2.432 3.556h-1.834zM21.473 10.944c0 2.756 3.252 4.935 3.252 4.935l1.014-1.348s-2.432-1.48-2.432-3.587h-1.834z"/>
    <path fill="#FDCC99" stroke="#231F20" stroke-linecap="round" stroke-linejoin="round" stroke-width=".281" d="M21.483 10.944c0 2.756-3.253 4.935-3.253 4.935l-1.013-1.348s2.452-1.48 2.452-3.587h1.814z"/>
    <path fill="#FDCC99" fill-rule="nonzero" stroke="#231F20" stroke-linecap="round" stroke-linejoin="round" stroke-width=".281" d="M23.813 6.9v4.054h-4.661V6.901h4.661zM20.51 8.016V9.87h1.945V8.015H20.51z"/>
    <path fill="#FDCC99" stroke="#231F20" stroke-width=".283" d="M18.108.213v21.28H.76C.223 15.2.365 8.107.365.213h17.743z"/>
    <path fill="#781D7E" stroke="#231F20" stroke-width=".281" d="M9.373 1.875s-.223-.203 0-.223c.223-.02.872 0 1.014-.091.29-.132.604-.201.922-.203.409.024.798.184 1.104.456.233.192.233.284.466.375.252.048.51.048.76 0-.107.08-.227.141-.354.182-.162 0-.213.142-.213.335 0 .192 0 .1.193.243l.233.162c-.164.057-.31.154-.426.284a1.743 1.743 0 0 0-.253.567s-.598 0-.7.101a2.35 2.35 0 0 0-.213 1.348s-.182-.314-.222-.172a1.013 1.013 0 0 0-.132.375c.022.172.059.341.111.507a.82.82 0 0 0-.314-.163c-.143.014-.284.051-.415.112-.202.14-.351.343-.426.577-.116.262-.116.56 0 .821.113.143.239.275.375.395a1.257 1.257 0 0 0-.365.082.385.385 0 0 0-.202.253c-.034.23-.006.464.08.679.28.557.594 1.095.943 1.611.618.902 1.176 1.58 1.307 1.844a18.098 18.098 0 0 0 2.027 2.787c.261.22.61.302.942.223a.76.76 0 0 0 .578-.81 3.04 3.04 0 0 0-.608-1.51 4.246 4.246 0 0 1-.912-1.44 5.979 5.979 0 0 1 .091-2.229c.161-.45.394-.87.69-1.246.283-.385.901-.841.942-1.46a2.027 2.027 0 0 0-.345-1.58 1.145 1.145 0 0 0-1.236-.071c-.334.192-.375.83-.284 1.114.091.284.7.68.7 1.014a.871.871 0 0 1-.102.476s-.07-.304-.182-.355a2.675 2.675 0 0 0-.558-.152c-.02.277-.1.547-.233.79a.567.567 0 0 1-.446.284l-.608.163a.557.557 0 0 0-.385.304c-.038.156-.038.32 0 .476.07.19.158.374.264.547-.1-.038-.196-.09-.284-.152a1.48 1.48 0 0 1-.476-.557.82.82 0 0 1 0-.78c.142-.142.456-.173.648-.457.193-.283.314-.567-.111-.496-.193 0-.69.233-.69.233a.83.83 0 0 1 .599-.476 2.21 2.21 0 0 0 .506-.122.76.76 0 0 0 .284-.355c.091-.331.152-.67.182-1.013.15-.46.455-.853.862-1.115a2.878 2.878 0 0 1 1.135-.283 1.52 1.52 0 0 1 1.195 1.013 2.868 2.868 0 0 1-.304 2.118c-.345.442-.6.948-.75 1.49 0 .283.132.273.244.273.2-.018.395-.07.577-.152.276-.241.528-.51.75-.8a4.347 4.347 0 0 1-.142 1.013.861.861 0 0 1-.425.405c-.207.084-.42.149-.639.193h-.304l-.06.557.577-.111c.328-.066.631-.224.872-.456a4.053 4.053 0 0 1-.122.78c0 .122-.355.294-.638.385a3.537 3.537 0 0 1-.67.122v.567s.386-.07.71-.162c.216-.07.418-.177.598-.314a1.865 1.865 0 0 1-.142.476c-.091.162-.233.193-.476.284a.557.557 0 0 0-.375.517c0 .283.324.85.426 1.013.191.38.295.8.304 1.226a3.233 3.233 0 0 1-.304 1.348c-.128.213-.33.372-.568.446a4.651 4.651 0 0 0-.476.273 1.388 1.388 0 0 0-.314.375l-.213.426c.04-.42-.02-.843-.172-1.236-.244-.335-.639-.619-.922-.953-.284-.334-.78-.83-1.014-1.115-.233-.283-.213-.354-.304-.212a2.34 2.34 0 0 0-.476 1.52c.068.51.282.988.618 1.378.334.283.547.385.568.516.02.132-.142.477-.051.67l.496.313s-.283.416-.445.416c-.163 0-.254.06-.254.192-.04.233-.094.463-.162.69a.405.405 0 0 0-.314.1 1.59 1.59 0 0 1-.476.254c-.254.091-.355.223-.477.253-.099.029-.194.07-.283.122 0 0 .121-.476 0-.578-.122-.1-.264-.243-.355-.152a5.138 5.138 0 0 0-.507.416 3.151 3.151 0 0 0-.567.628c-.122.183-.466-.182-.659-.182a2.027 2.027 0 0 0-.547.152s.193-.476.567-.568c.193-.05.223-.537.223-.537a1.175 1.175 0 0 0-.668 0c-.122 0-.335-.192-.365-.283-.03-.092.05-.345-.112-.406-.162-.06-.628.122-.628.122a2.21 2.21 0 0 1 .294-.406c.122-.131.466-.445.628-.385.112.034.211.101.284.193.147.158.332.277.537.344.122 0 .345-.121.345-.121a.882.882 0 0 1-.092-.416c0-.152.223-.506 0-.567l-.375-.122s.72-.192.852-.07c.131.121.344.324.283.536-.06.213-.09.386 0 .477.092.09.254.354.477.385a.507.507 0 0 0 .567-.284c.11-.208.262-.39.446-.537.091-.07.091-.446.122-.578.03-.131-1.358-1.195-1.672-1.641-.31-.35-.48-.8-.477-1.267 0-.476.061-.881.091-1.013a.284.284 0 0 0-.172-.365h-.314a2.189 2.189 0 0 0-.7.557 6.698 6.698 0 0 0-.931 1.733c0 .284.192.943 0 1.013-.193.071-.456.082-.537.152-.082.071 0 .355-.071.446a1.155 1.155 0 0 1-.72 0 .76.76 0 0 1-.294-.273s0 .182-.121.213a1.58 1.58 0 0 1-.7-.132.314.314 0 0 1-.192-.324s-.162.202-.294.172a2.787 2.787 0 0 1-.496-.416.456.456 0 0 1 .263-.212.284.284 0 0 0 .253-.315.608.608 0 0 0-.375-.486c-.192-.06-1.145.05-1.205.284-.061.233-.284.131-.325 0-.04-.132-.192-.284-.324-.284-.162.1-.31.222-.436.365 0 0 .132-1.074.446-.943a.81.81 0 0 0 .669 0 .902.902 0 0 1 .638-.08c.162.1-.375-.122-.466-.284-.091-.163-.223-.406-.354-.477-.132-.07-.375 0-.446-.223a1.601 1.601 0 0 1 0-.72c.101-.293-.436-.192-.436-.192s.436-.354.72-.223c.283.132.445.477.506.568.06.091.385.861.608.922.223.06.253-.06.314-.162a.415.415 0 0 0 0-.375c-.06-.101-.344-.193-.223-.253.122-.061.284 0 .355-.223.122-.395-.334-.608-.334-.608s.871 0 1.013.223c.142.223.314.608.253.76-.06.152-.73.354-.628.79.101.436.091.608.253.7.146.098.307.174.477.222.203.033.396.109.567.223.223.162.426.304.679.213a.942.942 0 0 0 .557-.588c.061-.253 0-2.026.122-2.412.147-.423.437-.782.82-1.013.294-.111.61-.153.923-.121a6.8 6.8 0 0 0 .83.141c.193 0 .284 0 .284-.172s-.76-.922-.952-1.084a2.878 2.878 0 0 1-.608-.628c0-.132-.314-.092-.314-.092s-.284-.07-.314.092a.263.263 0 0 1-.314.223c-.163 0-.325.344-.446.374-.122.03 0 .315 0 .527-.198.035-.4.035-.598 0-.091 0-.213-.425-.213-.425l-.07.375a.669.669 0 0 1-.599 0 1.257 1.257 0 0 1-.06-.375s.121.243 0 .344c-.122.102-.892-.08-.892-.08v-.376c-.03.088-.068.172-.112.254a.922.922 0 0 1-.689-.092c-.08-.06.152-.354.152-.608 0-.253-.132-.182-.132-.182s-.415-.132-.415-.263c0-.132-.942.608-.942.891a.892.892 0 0 1-.284-.344c-.071-.193-.608 0-.446.689 0 0-.507-.466-.314-.912a.72.72 0 0 1 .669-.446l.76-.101s-.213-.406-.436-.406a1.804 1.804 0 0 1-.669-.131 1.56 1.56 0 0 1 0-.852c-.172-.253-.79 0-.79 0 .159-.282.42-.492.73-.587.83-.061.79.679 1.013.81a.395.395 0 0 0 .476-.07.75.75 0 0 0 .182-.507c0-.213-.415-.233-.415-.233.165-.099.355-.148.547-.142.253 0 .284.223.314.344.05.186.05.382 0 .568-.06.132-.152.253-.091.385.101.205.255.38.446.507.224.18.502.28.79.283.537 0 1.49 0 1.642-.446.152-.445.07-.73-.091-.79L6.516 7.6s-.254-.294-.345-.294a.537.537 0 0 0-.415.446 3.658 3.658 0 0 1-.477-.547.659.659 0 0 0 .071-.406 1.135 1.135 0 0 1-.192.294.69.69 0 0 1-.497-.435.8.8 0 0 0 .142-.426l-.233.263c-.111.092-.355-.212-.456-.425a.77.77 0 0 0 .122-.355l-.264.233a1.013 1.013 0 0 1-.304-.689c0-.162.314-.354.314-.354a.405.405 0 0 1-.283-.223l-.092-.193h-.8s-.182.172-.284.162c-.101-.01-.294-.101-.314-.284a3.314 3.314 0 0 1 0-.476c-.182-.243-.628.091-.628.091.069-.2.164-.391.284-.567a.75.75 0 0 1 .476-.375.628.628 0 0 1 .537.284c.076.103.172.19.284.253h.506c.122 0-.587-.73-.638-.892-.05-.162-.375-.172-.395-.324-.02-.152.142-.192.212-.304.071-.111.112-.415-.222-.415a3.466 3.466 0 0 0-.355 0c.228-.148.5-.212.77-.183.266.03.503.184.638.416.061.192.061.415.122.537.062.132.148.253.253.354.102.061.132.213.223.254.091.04.223 0 .254-.223.03-.223-.092-.416 0-.416h.405c.101 0 0-.709-.122-.76l-.162-.09s.7.06.821.475c.117.247.152.523.101.79-.07.122-.101.345-.324.345h-.182s-.416.061-.446.254c-.03.192-.223.314 0 .668.543.676 1.158 1.291 1.834 1.835.192.09.304.283.517.09.07-.394 0-.587.182-.76a1.58 1.58 0 0 1 .74-.253c.18-.041.363-.065.547-.07a.405.405 0 0 0-.192-.294c-.102-.162-.375-.112-.375-.112a.659.659 0 0 1 .516-.142c.284 0 .69.527 1.014.558a.486.486 0 0 0 .506-.284c.061-.122-.445-.578-.587-.578-.142 0-.122-.263-.122-.263.215.185.468.323.74.405.13.054.275.054.405 0l.264-.375a2.523 2.523 0 0 0-1.784-.78c-1.013.06-.334 0-.334 0s-.264 0-.264-.101c0-.102-.121-.142-.121-.142s-.183.06-.152-.071a1.398 1.398 0 0 0 0-.436l.273.223c.071.06.284.091.345.152.06.06 0 .172.162.223.162.05.344 0 .598 0 .144.033.284.084.415.152.252.071.491.18.71.324.086.068.181.122.283.162.083-.114.148-.24.193-.375a.517.517 0 0 0-.06-.253.82.82 0 0 0-.386-.466 2.027 2.027 0 0 0-.638 0c-.102 0-.325-.355-.477-.547v-.01z"/>
    <path stroke="#231F20" stroke-width=".638" d="M54.831.324c0 12.799.375 23.307-2.411 31.93-7.296 22.466-23.033 31.292-24.837 31.292-1.834 0-17.54-8.887-24.837-31.292C0 23.671.345 13.174.345.324H54.83z"/>
    <path fill="#231F20" d="M11.086 1.723a.182.182 0 0 0-.183.152.669.669 0 0 0 0 .212s.244-.06.244-.152c0-.09.142-.07.223-.06.08.01.233.101.385.121a.79.79 0 0 0-.639-.273h-.03z"/>
    <path stroke="#231F20" stroke-width=".281" d="M7.185 7.924a5.695 5.695 0 0 1-.223-1.155c.07-.17.155-.332.253-.486V6.17a2.34 2.34 0 0 1-.476.314 1.5 1.5 0 0 0 .273-.679"/>
    <path fill="#231F20" d="M10.417 12.16a2.402 2.402 0 0 0-.385.557c-.162.416-.081.456-.081.456l.253.061c.002-.243.05-.484.142-.71.112-.24.187-.496.223-.76-.028.14-.08.274-.152.396zM14.187 6.181c.092.33.12.674.08 1.014-.08.395.234.06.234.06a1.753 1.753 0 0 0-.314-1.013v-.06zM13.791 6.79a3.73 3.73 0 0 1-.922 1.185c-.476.294.264-.72.264-.72.253-.101.478-.26.658-.466zM12.332 3.172a.486.486 0 0 0 .233-.233c.081-.173.193.283.061.628-.132.344-.07-.06-.07-.06l-.051-.366h-.173v.03zM11.552 19.081c-.239.052-.46.168-.638.334-.264.264.304.092.304.092s0-.183.334-.426zM7.874 5.685a1.013 1.013 0 0 0-.497.638c-.111.294-.122-.375-.122-.375.186-.13.396-.22.619-.263zM4.053 2.766c.154.35.273.712.355 1.085.091.192.213.212.213.212l-.071-.445a.72.72 0 0 0-.142-.578l-.355-.274zM4.053 8.927c-.162.065-.315.15-.456.254-.101.091.223.182.223.182a.861.861 0 0 1 .233-.436zM3.901 14.906a1.55 1.55 0 0 1-.435.304c-.112 0-.203.172-.163.203.041.03.193 0 .193 0h.182a.476.476 0 0 0 .223-.436v-.07zM2.432 3.425s-.314.142-.334.355c-.02.213.212.101.212.101s.051-.243.122-.456zM69.707 36.115v5.067c0 4.165.112 5.979.618 6.485.507.507 1.196.649 3.405.649 1.5 0 2.746 0 3.425-.851.374-.5.627-1.08.74-1.693 0-.233.081-.375.253-.375.173 0 .173.112.173.426-.069.955-.211 1.904-.426 2.837-.203.649-.284.76-1.784.76-4.053 0-5.948-.172-7.6-.172-.253 0-1.925.091-2.776.091-.304 0-.446-.06-.446-.233 0-.172 0-.162.223-.162.287-.01.573-.051.851-.122.568-.111.71-.73.821-1.55.142-1.196.142-3.435.142-6.15v-5.007l-.06-6.08c0-1.013-.285-1.408-1.217-1.611a4.935 4.935 0 0 0-1.013-.081c-.112 0-.223-.06-.223-.172 0-.112.142-.233.456-.233 1.266 0 3.04.09 3.192.09l3.04-.09c.314 0 .456.06.456.233 0 .172-.112.172-.223.172a6.08 6.08 0 0 0-.943.081c-.82.142-1.013.618-1.104 1.611v6.08h.02zm16.74 0v4.986c0 2.716 0 4.955.142 6.15.081.822.254 1.44 1.105 1.551.423.065.85.105 1.277.122.162 0 .223.08.223.162 0 .08-.142.233-.456.233-1.56 0-3.344-.091-3.486-.091-.142 0-1.926.09-2.777.09-.304 0-.446-.06-.446-.232 0-.172 0-.162.223-.162.287-.01.573-.052.851-.122.568-.111.71-.73.821-1.55.142-1.196.142-3.435.142-6.151v-4.986l-.06-6.08c-.051-1.013-.335-1.439-1.014-1.58a3.354 3.354 0 0 0-.871-.112c-.122 0-.234-.06-.234-.172 0-.112.142-.233.456-.233.933 0 2.716.09 2.858.09.142 0 1.925-.09 2.777-.09.314 0 .456.06.456.233 0 .172-.112.172-.223.172a3.668 3.668 0 0 0-.71.081c-.77.142-1.013.618-1.013 1.611v6.08h-.04zM96.935 31.9l.345 13.568c.06 2.32.345 3.04 1.105 3.283.464.112.94.17 1.418.173.142 0 .223 0 .223.162s-.172.233-.507.233c-1.61 0-2.746-.091-3.04-.091-.293 0-1.459.09-2.725.09-.284 0-.456 0-.456-.232 0-.233.08-.162.223-.162.394 0 .787-.059 1.165-.173.71-.202.851-1.013.851-3.597V28.941c0-1.105.091-1.419.314-1.419s.72.628 1.014.912l8.998 9.718 6.79 7.387-.315-14.39c0-1.843-.233-2.462-1.104-2.684a6.89 6.89 0 0 0-1.389-.142c-.192 0-.223-.092-.223-.203 0-.111.223-.203.568-.203 1.267 0 2.624.092 2.939.092.314 0 1.256-.092 2.421-.092.315 0 .507 0 .507.203s-.111.203-.314.203a2.625 2.625 0 0 0-.679.08c-.932.203-1.013.822-1.013 2.524l-.061 16.598c0 1.865 0 2.027-.253 2.027-.254 0-.578-.304-2.027-1.814l-7.337-7.711-7.387-8.107-.05-.02zM132.9 49.714c-4.256 0-7.094-1.013-9.353-3.04a10.853 10.853 0 0 1-3.425-8.38 11.309 11.309 0 0 1 3.171-7.742c1.703-1.692 4.277-3.04 8.644-3.04 1.375 0 2.748.114 4.104.345.954.193 1.918.336 2.888.425.314 0 .375.142.375.314 0 .173-.091.558-.142 1.581-.05 1.024-.06 2.493-.091 2.918-.03.426-.081.598-.253.598-.173 0-.223-.202-.223-.598a3.901 3.901 0 0 0-1.196-2.888 9.424 9.424 0 0 0-5.665-1.62c-3.77 0-5.522 1.104-6.515 2.026-2.027 2.026-2.544 4.499-2.544 7.387A10.225 10.225 0 0 0 132.9 48.366c2.118 0 3.79-.253 4.924-1.408a5.492 5.492 0 0 0 1.014-2.381c0-.315.111-.426.284-.426.172 0 .192.192.192.426a29.559 29.559 0 0 1-.618 3.627c-.172.537-.233.588-.74.821a16.629 16.629 0 0 1-5.066.649l.01.04zm9.718-11.147a10.964 10.964 0 0 1 11.146-11.075c6.374 0 11.147 4.053 11.147 10.63 0 6.343-4.48 11.582-11.299 11.582-7.762 0-10.994-6.08-10.994-11.147v.01zm2.695-.79c0 6.597 3.962 10.853 9.06 10.853 2.553 0 7.822-1.48 7.822-9.718 0-6.8-4.134-10.458-8.613-10.458-4.732 0-8.269 3.121-8.269 9.323zm27.968-1.662v5.067c0 4.165.111 5.979.628 6.485.517.507 1.186.649 3.395.649 1.5 0 2.746 0 3.425-.851a3.78 3.78 0 0 0 .74-1.693c0-.233.08-.375.253-.375.172 0 .172.112.172.426-.068.955-.21 1.904-.425 2.837-.203.649-.284.76-1.784.76-4.053 0-5.948-.172-7.59-.172h-1.165l-1.611.06c-.314 0-.456-.06-.456-.232 0-.173.06-.162.223-.162.287-.011.572-.052.851-.122.567-.111.71-.73.82-1.55.143-1.196.143-3.436.143-6.151V30.035c-.061-1.013-.284-1.408-1.226-1.611a4.874 4.874 0 0 0-.963-.081c-.112 0-.223-.06-.223-.172 0-.112.142-.233.456-.233 1.277 0 3.04.09 3.202.09l3.04-.09c.304 0 .446.06.446.233 0 .172-.112.172-.223.172-.312.002-.624.03-.932.081-.821.142-1.014.618-1.105 1.611l-.06 6.08h-.031zm14.764-4.215l.375 13.568c0 2.32.335 3.04 1.105 3.283.461.112.934.17 1.408.173.142 0 .233 0 .233.162s-.172.233-.516.233c-1.612 0-2.747-.091-3.04-.091-.294 0-1.45.09-2.726.09-.284 0-.456 0-.456-.232 0-.233.09-.162.233-.162.391-.002.78-.06 1.155-.173.71-.202.851-1.013.851-3.597V28.941c0-1.105.081-1.419.314-1.419.233 0 .71.628 1.014.912l8.998 9.718 6.79 7.387-.315-14.39c0-1.843-.223-2.462-1.104-2.684a6.8 6.8 0 0 0-1.378-.142c-.203 0-.234-.092-.234-.203 0-.111.234-.203.568-.203 1.277 0 2.635.092 2.949.092.314 0 1.256-.092 2.411-.092.315 0 .507 0 .507.203s-.111.203-.304.203a2.584 2.584 0 0 0-.679.08c-.942.203-1.013.822-1.013 2.524l-.05 16.598c0 1.865-.062 2.027-.264 2.027-.203 0-.568-.304-2.078-1.814l-7.377-7.67-7.387-8.107.01-.061zm23.743-3.405a3.151 3.151 0 0 0-.568-1.844c-.223-.254-.253-.335-.253-.477 0-.141.142-.172.253-.172.693.09 1.373.26 2.027.507a.7.7 0 0 1 .476.74c0 2.026-1.439 4.387-2.432 5.583a.405.405 0 0 1-.365.223.142.142 0 0 1-.142-.142.841.841 0 0 1 .112-.365c.588-1.272.905-2.652.932-4.053h-.04zm9.12 21.22a8.593 8.593 0 0 1-3.8-.771c-.396-.193-.426-.304-.426-1.074 0-1.419.112-2.544.142-3.04.03-.497.091-.456.233-.456.142 0 .193.091.193.314-.007.34.023.68.09 1.013.426 2.098 2.29 2.888 4.186 2.888a3.77 3.77 0 0 0 4.053-3.76c0-1.955-.82-3.09-3.253-5.066l-1.276-1.013c-3.04-2.463-3.689-4.216-3.689-6.151 0-3.04 2.27-5.067 5.867-5.067.887-.013 1.771.082 2.635.284.331.084.671.132 1.013.142.223 0 .284.06.284.203 0 .141-.112 1.074-.112 3.04 0 .456-.06.648-.202.648-.142 0-.203-.142-.223-.365a5.067 5.067 0 0 0-.375-1.418c-.162-.304-.932-1.5-3.537-1.5a3.222 3.222 0 0 0-3.485 3.283c0 1.621.79 2.584 3.455 4.763l.79.628c3.344 2.625 4.145 4.388 4.145 6.647a5.857 5.857 0 0 1-2.412 4.702 7.438 7.438 0 0 1-4.296 1.125zm25.718-13.6v4.986c0 2.716 0 4.955.142 6.15.081.822.253 1.44 1.104 1.551.423.065.85.105 1.277.122.162 0 .223.08.223.162 0 .08-.142.233-.456.233-1.56 0-3.344-.091-3.486-.091-.142 0-1.925.09-2.776.09-.304 0-.446-.06-.446-.232 0-.172.05-.162.223-.162.287-.01.572-.052.851-.122.568-.111.71-.73.82-1.55.143-1.196.143-3.435.143-6.151v-4.986l-.061-6.08c0-1.013-.334-1.439-.963-1.58a3.354 3.354 0 0 0-.871-.112c-.122 0-.233-.06-.233-.172 0-.112.142-.233.456-.233.932 0 2.715.09 2.857.09.142 0 1.926-.09 2.777-.09.314 0 .456.06.456.233 0 .172-.112.172-.223.172a3.668 3.668 0 0 0-.71.081c-.77.142-1.013.618-1.013 1.611l-.05 6.08h-.04zm10.488-4.215l.375 13.568c.05 2.32.334 3.04 1.094 3.283.465.112.941.17 1.42.173.14 0 .222 0 .222.162s-.172.233-.507.233c-1.61 0-2.746-.091-3.04-.091-.294 0-1.459.09-2.726.09-.283 0-.456 0-.456-.232 0-.233.082-.162.223-.162.395 0 .788-.059 1.166-.173.71-.202.85-1.013.85-3.597V28.941c0-1.105.092-1.419.315-1.419s.72.628 1.013.912l8.999 9.718 6.79 7.387-.264-14.41c0-1.844-.233-2.462-1.105-2.685a6.82 6.82 0 0 0-1.388-.142c-.193 0-.223-.09-.223-.202 0-.112.223-.203.567-.203 1.267 0 2.635.091 2.95.091.313 0 1.246-.09 2.41-.09.315 0 .508 0 .508.202s-.112.202-.315.202a2.625 2.625 0 0 0-.678.081c-.933.203-1.014.821-1.014 2.524l-.06 16.598c0 1.865-.051 2.027-.254 2.027s-.567-.304-2.077-1.814l-7.377-7.671-7.388-8.107-.03-.04zm26.823 0l.365 13.568c.06 2.32.344 3.04 1.104 3.283.465.112.941.17 1.419.173.142 0 .223 0 .223.162s-.172.233-.507.233c-1.61 0-2.746-.091-3.04-.091-.294 0-1.459.09-2.726.09-.283 0-.456 0-.456-.232 0-.233.081-.162.223-.162.395 0 .788-.059 1.166-.173.709-.202.85-1.013.85-3.597V28.941c0-1.105.092-1.419.315-1.419s.72.628 1.013.912l8.999 9.718 6.79 7.387-.315-14.39c0-1.843-.233-2.462-1.105-2.684a6.89 6.89 0 0 0-1.388-.142c-.192 0-.223-.092-.223-.203 0-.111.223-.203.568-.203 1.266 0 2.634.092 2.948.092.315 0 1.247-.092 2.412-.092.314 0 .507 0 .507.203s-.112.203-.314.203a2.625 2.625 0 0 0-.68.08c-.931.203-1.013.822-1.013 2.524l-.06 16.598c0 1.865-.051 2.027-.254 2.027-.202 0-.567-.304-2.077-1.814l-7.377-7.67-7.387-8.107.02-.061zM88.646 9.505c0-.091.071-.111.223-.111h4.743c.21.002.42-.012.628-.04.07 0 .132-.072.203-.072.07 0 0 .05 0 .122 0 .07-.071.263-.112.648 0 .142 0 .75-.07.922-.072.173 0 .152-.092.152-.091 0-.111-.07-.111-.182a1.672 1.672 0 0 0-.081-.497c-.102-.222-.244-.395-1.014-.476h-1.895c-.152 0-.08 0-.08.142v3.82c0 .102 0 .142.08.142h2.21c.324 0 .526-.05.648-.192.121-.142.152-.183.203-.183.05 0 .07 0 .07.112 0 .111-.07.314-.111.78v.882c0 .09 0 .263-.101.263-.102 0-.092-.05-.092-.122a1.257 1.257 0 0 0-.06-.456c0-.192-.183-.435-.72-.486-.375 0-1.743-.07-2.026-.07a.091.091 0 0 0-.102.1v3.537c0 .953.254 1.135 1.611 1.135.457.036.916-.005 1.358-.122.355-.152.527-.435.618-1.013 0-.152.061-.203.132-.203.071 0 .081.112.081.203-.038.452-.098.902-.182 1.348-.091.354-.203.354-.75.354-2.088 0-3.04-.08-3.415-.08H89.083c-.153 0-.224 0-.224-.112s0-.081.112-.081a3.09 3.09 0 0 0 .415-.05c.274-.062.345-.366.395-.76.071-.589.071-1.683.071-3.04V10.365c0-.476-.131-.689-.587-.79a2.452 2.452 0 0 0-.477 0s-.111 0-.111-.081l-.03.01zm75.737 0c0-.091.07-.111.223-.111h3.202a4.246 4.246 0 0 1 2.533.608 2.422 2.422 0 0 1 1.014 1.884 4.297 4.297 0 0 1-1.682 3.203c1.134 1.449 2.077 2.685 2.888 3.546.39.458.91.79 1.49.953.486-.162.719-.639.942-1.247l3.14-8.603c.163-.456.224-.537.305-.537.08 0 .142.06.304.497l3.232 8.35c.497 1.236.902 1.459 1.186 1.54.18.057.368.084.557.08.081 0 .142 0 .142.082 0 .08-.132.111-.284.111h-2.168c-.264 0-.416 0-.416-.101s0-.081.092-.101c.09-.02.172-.152.08-.365l-1.286-3.415a.111.111 0 0 0-.122-.081h-3.03c-.07 0-.111 0-.142.111l-.83 2.453a3.04 3.04 0 0 0-.193.932c0 .273.294.395.527.395h.142c.091 0 .132 0 .132.081s-.082.112-.203.112h-1.348a.82.82 0 0 1-.284 0h-1.013a2.685 2.685 0 0 1-1.429-.264 7.093 7.093 0 0 1-1.874-2.027l-1.51-2.026a.213.213 0 0 0-.173-.081h-1.712c-.06 0-.091 0-.091.111v.335c0 1.327 0 2.421.07 3.04 0 .395.122.699.538.76l.618.05c.091 0 .111 0 .111.081s-.06.112-.212.112h-3.01c-.152 0-.223 0-.223-.112 0-.111 0-.08.111-.08.14-.008.279-.025.416-.051.274-.061.344-.365.405-.76.061-.588.061-1.683.061-3.04v-5.564c0-.476-.142-.689-.598-.79a2.381 2.381 0 0 0-.476 0c-.05 0-.112 0-.112-.081l-.04.01zm37.868 0c0-.091.061-.111.213-.111h4.742c.2-.008.4-.028.598-.061.071 0 .122-.071.193-.071.07 0 .05.05.05.121s-.06.264-.1.649c0 .142-.052.75-.072.922-.02.172 0 .152-.101.152s-.112-.07-.112-.182a1.398 1.398 0 0 0-.08-.497c-.102-.223-.234-.395-1.014-.476h-1.895c-.152 0-.091 0-.091.142v3.82c0 .101 0 .142.091.142h2.199c.314 0 .527-.05.649-.193.121-.141.152-.182.212-.182.061 0 .071 0 .071.111 0 .112-.07.315-.111.78 0 .274-.061.791-.061.882 0 .092 0 .264-.091.264s-.102-.05-.102-.122a1.5 1.5 0 0 0-.05-.456c-.061-.192-.183-.436-.72-.486-.375 0-1.753-.071-2.026-.071a.091.091 0 0 0-.102.101v3.557c.051.953.254 1.135 1.612 1.135.447.025.896-.026 1.327-.152.365-.152.527-.436.628-1.013 0-.152.05-.203.122-.203.07 0 .08.111.08.203 0 .09-.11 1.013-.171 1.347-.061.335-.213.355-.75.355-2.098 0-3.04-.081-3.425-.081h-1.358c-.152 0-.223 0-.223-.112 0-.111 0-.08.111-.08.14-.007.279-.024.416-.051.273-.061.344-.365.405-.76.071-.588.071-1.682.071-3.04V10.366c0-.476-.142-.689-.598-.79a2.35 2.35 0 0 0-.466 0c-.06 0-.111 0-.111-.081l.04.01zm50.667 0c0-.091.07-.111.223-.111h4.742c.197-.007.394-.028.588-.061.07 0 .132-.071.203-.071.07 0 .05.05.05.121s-.07.264-.111.649c0 .142 0 .75-.071.922-.071.172 0 .152-.091.152-.092 0-.112-.07-.112-.182a1.672 1.672 0 0 0-.08-.497c-.102-.223-.244-.395-1.014-.476h-1.895c-.152 0-.081 0-.081.142v3.82c0 .101 0 .142.08.142h2.21c.324 0 .517-.05.648-.193.132-.141.152-.182.203-.182.05 0 .071 0 .071.111 0 .112-.07.315-.111.78 0 .274-.051.791-.051.882 0 .092 0 .264-.101.264-.102 0-.092-.05-.092-.122a1.257 1.257 0 0 0-.06-.456c0-.192-.183-.436-.72-.486-.375 0-1.743-.071-2.027-.071-.06 0-.09 0-.09.101v3.557c0 .953.253 1.135 1.61 1.135.448.023.897-.028 1.328-.152.355-.152.527-.436.618-1.013 0-.152.06-.203.132-.203.07 0 .08.111.08.203-.037.452-.098.901-.182 1.347-.1.355-.202.355-.75.355-2.087 0-3.04-.081-3.414-.081h-1.358c-.162 0-.223 0-.223-.112 0-.111 0-.08.111-.08a3.09 3.09 0 0 0 .416-.051c.273-.061.344-.365.395-.76.07-.588.07-1.682.07-3.04V10.366c0-.476-.13-.689-.587-.79a2.452 2.452 0 0 0-.476 0c-.05 0-.112 0-.112-.081l.03.01zM69.92 9.991v5.858c0 1.327 0 2.421.07 3.04 0 .395.133.699.548.76l.618.05c.081 0 .112 0 .112.081s-.071.112-.223.112h-3.06c-.152 0-.223 0-.223-.112 0-.111 0-.08.111-.08.14-.008.278-.025.416-.051.273-.061.344-.365.405-.76.07-.588.07-1.683.07-3.04V9.99h-2.026c-.861 0-1.185.112-1.408.446-.092.134-.17.277-.233.426 0 .111-.092.142-.142.142-.051 0-.071 0-.071-.122 0-.121.273-1.327.304-1.439.03-.111.08-.263.142-.263.195.077.4.132.608.162.405 0 .932.07 1.094.07h5.188c.463.002.925-.046 1.378-.141.071 0 .071.081.071.172v1.52c0 .122 0 .183-.101.183s-.101 0-.111-.233v-.163c-.051-.415-.375-.73-1.703-.76H69.92zm14.977 3.415v2.443c0 1.327 0 2.421.071 3.04 0 .395.122.699.537.76.193 0 .497.05.628.05.132 0 .112 0 .112.081s-.071.112-.223.112h-3.06c-.152 0-.223 0-.223-.112 0-.111 0-.08.111-.08a3.09 3.09 0 0 0 .416-.051c.273-.061.344-.365.395-.76.07-.588.07-1.683.07-3.04v-1.46a.081.081 0 0 0-.08-.08h-5.878s-.08 0-.08.08v1.46c0 1.327 0 2.421.07 3.04 0 .395.122.699.537.76.193 0 .497.05.629.05.131 0 .111 0 .111.081s-.07.112-.223.112h-3.06c-.152 0-.223 0-.223-.112 0-.111 0-.08.111-.08a3.09 3.09 0 0 0 .416-.051c.273-.061.344-.365.395-.76.07-.588.07-1.683.07-3.04V10.366c0-.476-.13-.689-.587-.79a2.452 2.452 0 0 0-.476 0s-.112 0-.112-.081.071-.112.223-.112H78.503c.152 0 .213 0 .213.112a.091.091 0 0 1-.102.081 1.875 1.875 0 0 0-.354 0c-.375.07-.477.304-.507.79V13.7c0 .071 0 .081.081.081h5.877s.082 0 .082-.08v-3.335c0-.476-.132-.689-.588-.79a2.452 2.452 0 0 0-.476 0s-.112 0-.112-.081.071-.112.223-.112H85.769c.152 0 .212 0 .212.112a.091.091 0 0 1-.101.081 1.875 1.875 0 0 0-.355 0c-.375.07-.486.304-.506.79v3.04h-.122zm26.225 0v2.443c0 1.327 0 2.421.071 3.04 0 .395.132.699.547.76l.618.05c.081 0 .112 0 .112.081s-.071.112-.223.112h-3.06c-.152 0-.223 0-.223-.112 0-.111 0-.08.111-.08.14-.008.279-.025.416-.051.273-.061.344-.365.405-.76.07-.588.07-1.683.07-3.04v-1.46a.091.091 0 0 0-.09-.08h-5.867s-.092 0-.092.08v1.46c0 1.327 0 2.421.071 3.04 0 .395.132.699.547.76l.619.05c.08 0 .111 0 .111.081s-.07.112-.223.112h-3.06c-.152 0-.223 0-.223-.112 0-.111 0-.08.111-.08.14-.008.279-.025.416-.051.273-.061.344-.365.405-.76.071-.588.071-1.683.071-3.04V10.366c0-.476-.142-.689-.598-.79a2.35 2.35 0 0 0-.466 0c-.06 0-.111 0-.111-.081s.06-.112.212-.112H104.728c.152 0 .223 0 .223.112 0 .111-.06.081-.112.081a1.713 1.713 0 0 0-.344 0c-.375.07-.486.304-.517.79V13.7c0 .071 0 .081.091.081h5.868s.09 0 .09-.08v-3.335c0-.476-.141-.689-.597-.79a2.35 2.35 0 0 0-.466 0c-.061 0-.112 0-.112-.081s.061-.112.213-.112H111.994c.152 0 .223 0 .223.112 0 .111-.061.081-.112.081a1.713 1.713 0 0 0-.344 0c-.375.07-.487.304-.517.79v3.04h-.122zm3.04 1.206a5.36 5.36 0 0 1 5.411-5.41c3.121 0 5.452 1.965 5.452 5.187a5.431 5.431 0 0 1-5.452 5.665 5.188 5.188 0 0 1-5.37-5.442h-.04zm1.358-.425c0 3.222 1.935 5.31 4.428 5.31 1.247 0 3.82-.73 3.82-4.753 0-3.334-2.026-5.117-4.205-5.117-2.178 0-4.053 1.52-4.053 4.56h.01zm13.052-2.878l.172 6.627c0 1.145.172 1.5.547 1.611.226.055.457.082.69.081.07 0 .11 0 .11.081s-.08.112-.253.112H127.042c-.142 0-.223 0-.223-.112 0-.111 0-.08.111-.08.192 0 .384-.027.568-.082.344-.101.415-.496.415-1.763V9.89c0-.537 0-.689.152-.689s.355.304.497.436l4.397 4.752 3.314 3.618-.152-7.033c0-.901-.111-1.205-.537-1.317a3.314 3.314 0 0 0-.679-.07c-.091 0-.111 0-.111-.102s.111-.091.283-.091h2.615c.152 0 .253 0 .253.09 0 .092-.06.102-.152.102a1.277 1.277 0 0 0-.334 0c-.456.101-.507.405-.507 1.236v8.107c0 .912 0 1.013-.132 1.013-.131 0-.273-.152-1.013-.891l-3.608-3.75-3.607-3.972-.02-.02zm11.268 3.303a5.37 5.37 0 0 1 5.462-5.41c3.12 0 5.441 1.965 5.441 5.187a5.431 5.431 0 0 1-5.522 5.665 5.198 5.198 0 0 1-5.381-5.442zm1.317-.385c0 3.223 1.946 5.31 4.439 5.31 1.246 0 3.82-.73 3.82-4.752 0-3.334-2.027-5.118-4.215-5.118-2.19 0-4.054 1.52-4.054 4.56h.01zm12.16 1.206v-5.067c0-.476-.142-.689-.598-.79a2.35 2.35 0 0 0-.466 0c-.06 0-.111 0-.111-.081s.07-.112.223-.112h2.959c.152 0 .223 0 .223.112 0 .111 0 .081-.112.081-.114-.01-.23-.01-.344 0-.375.05-.487.304-.507.79v4.986c0 2.027.446 2.847 1.013 3.415.557.545 1.32.825 2.098.77a2.898 2.898 0 0 0 2.168-1.013 5.37 5.37 0 0 0 .811-3.395v-4.763c0-.476-.142-.689-.598-.79a2.35 2.35 0 0 0-.466 0c-.06 0-.111 0-.111-.081s.07-.112.223-.112h2.624c.152 0 .223 0 .223.112 0 .111-.05.081-.111.081a1.267 1.267 0 0 0-.345 0c-.375.07-.486.304-.507.79v4.53c0 1.49-.172 3.151-1.276 4.134a4.053 4.053 0 0 1-2.858 1.014 4.226 4.226 0 0 1-2.847-1.014c-.68-.648-1.206-1.62-1.206-3.637l-.102.04zm13.386-5.3v4.53c.001.069.035.133.092.172.469.162.963.234 1.459.213.357.017.71-.074 1.013-.263.611-.53.928-1.323.851-2.128 0-1.733-.912-2.777-2.401-2.777-.31-.005-.62.025-.922.091a.152.152 0 0 0-.112.162h.02zm10.134 5.199h2.645c.07 0 .07 0 .06-.102l-1.317-3.739c-.067-.202-.138-.202-.213 0l-1.175 3.709v.131zm8.887.567V10.366c0-.476-.142-.689-.598-.79a2.381 2.381 0 0 0-.476 0c-.051 0-.112 0-.112-.081s.071-.112.223-.112h3.08c2.27 0 2.767 1.379 2.767 2.078a3.496 3.496 0 0 1-1.297 2.493 3.222 3.222 0 0 1 2.391 2.918c0 1.49-1.165 3.04-3.526 3.04-.324 0-1.733-.081-1.844-.081h-1.358c-.152 0-.223 0-.223-.112 0-.111 0-.08.111-.08.14-.007.279-.024.416-.051.273-.061.344-.365.405-.76.061-.588.061-1.682.061-3.04l-.02.111zm1.114-5.847v3.71c0 .1 0 .13.092.151.28.05.566.07.85.06.77 0 1.014 0 1.257-.364.328-.391.505-.888.497-1.398 0-1.145-.507-2.382-1.865-2.382-.225-.003-.45.021-.668.071-.122 0-.163.071-.163.152zm0 4.388v3.79c0 .679 0 .871.477 1.074.387.15.8.221 1.216.213a1.854 1.854 0 0 0 1.976-2.017 3.344 3.344 0 0 0-1.348-2.776 2.442 2.442 0 0 0-1.145-.406h-1.084c-.203 0-.081 0-.081.092l-.01.03zm9.556-1.013v2.472c0 2.027.05 2.919.304 3.172.253.253.578.314 1.662.314.73 0 1.348 0 1.672-.415.187-.244.312-.529.365-.831 0-.112 0-.183.121-.183.122 0 .081.061.081.213-.03.468-.098.932-.202 1.388-.102.314-.142.365-.872.365-2.026 0-2.908-.08-3.719-.08h-1.357c-.152 0-.223 0-.223-.112s0-.081.111-.081c.14-.007.279-.024.416-.051.283-.06.354-.365.405-.76.07-.588.07-1.682.07-3.04v-5.432c0-.476-.141-.689-.597-.79a2.35 2.35 0 0 0-.466 0c-.061 0-.112 0-.112-.081s.071-.112.223-.112h3.06c.153 0 .223 0 .223.112 0 .111-.06.081-.111.081a2.777 2.777 0 0 0-.456 0c-.405.07-.517.304-.547.79v3.04l-.05.02zm20.925 6.647a4.286 4.286 0 0 1-1.864-.365c-.193-.101-.203-.152-.203-.527 0-.699 0-1.246.071-1.469.071-.223 0-.223.112-.223.111 0 .09 0 .09.152a2.452 2.452 0 0 0 0 .507 1.885 1.885 0 0 0 2.028 1.418 1.844 1.844 0 0 0 1.976-1.844c0-.952-.396-1.51-1.591-2.493l-.619-.516c-1.469-1.206-1.803-2.027-1.803-3.04 0-1.49 1.104-2.493 2.867-2.493.433-.007.865.037 1.287.132.16.043.322.067.487.07.111 0 .132 0 .132.102 0 .101-.051.527-.051 1.47 0 .212 0 .313-.101.313-.102 0-.092-.07-.112-.182a2.371 2.371 0 0 0-.172-.69c-.081-.151-.456-.739-1.733-.739a1.57 1.57 0 0 0-1.702 1.611c0 .79.385 1.257 1.682 2.33l.395.305c1.631 1.287 2.027 2.148 2.027 3.253a2.878 2.878 0 0 1-1.176 2.3c-.62.4-1.349.602-2.087.578l.06.04zm5.34-5.441a5.36 5.36 0 0 1 5.463-5.412c3.11 0 5.441 1.966 5.441 5.189a5.431 5.431 0 0 1-5.522 5.664 5.198 5.198 0 0 1-5.381-5.441zm1.318-.386c0 3.223 1.936 5.31 4.428 5.31 1.257 0 3.83-.73 3.83-4.752 0-3.334-2.026-5.118-4.215-5.118s-4.053 1.52-4.053 4.56h.01zm17.592 5.827a6.394 6.394 0 0 1-4.57-1.49 5.31 5.31 0 0 1-1.683-4.103 5.573 5.573 0 0 1 1.55-3.78 5.604 5.604 0 0 1 4.307-1.5 12.23 12.23 0 0 1 2.027.162c.465.1.935.17 1.409.213.152 0 .182.06.182.152 0 .091 0 .274-.071.77-.07.497 0 1.216 0 1.429 0 .213 0 .294-.122.294-.121 0-.111-.102-.111-.294a1.935 1.935 0 0 0-.588-1.419 4.61 4.61 0 0 0-2.766-.78 4.266 4.266 0 0 0-3.192 1.013 4.641 4.641 0 0 0-1.247 3.618 5.006 5.006 0 0 0 5.006 5.067 3.202 3.202 0 0 0 2.412-.7c.26-.342.434-.741.507-1.165 0-.152.06-.203.142-.203.08 0 .1.092.1.203-.065.597-.17 1.19-.313 1.773-.081.264-.112.294-.355.406-.81.235-1.65.34-2.493.314l-.131.02zm7.711-6.668v2.443c0 1.327 0 2.421.06 3.04 0 .395.133.699.548.76l.618.05c.091 0 .112 0 .112.081s-.071.112-.223.112h-3.061c-.152 0-.223 0-.223-.112 0-.111 0-.08.112-.08.14-.007.278-.024.415-.051.284-.061.345-.365.406-.76.07-.588.07-1.683.07-3.04V10.366c0-.476-.161-.709-.465-.78a1.854 1.854 0 0 0-.436 0s-.112 0-.112-.08c0-.082.071-.112.223-.112h2.757c.152 0 .222 0 .222.111 0 .112-.05.081-.111.081a1.794 1.794 0 0 0-.345 0c-.374.071-.486.304-.516.79v3.04l-.051-.01zm16.325-3.415v5.858c0 1.327 0 2.421.07 3.04 0 .395.122.699.538.76l.618.05c.091 0 .111 0 .111.081s-.07.112-.223.112h-3.05c-.162 0-.223 0-.223-.112 0-.111 0-.08.112-.08a3.09 3.09 0 0 0 .415-.051c.274-.061.345-.365.396-.76.07-.588.07-1.683.07-3.04V9.99h-2.026c-.862 0-1.196.112-1.419.446-.091.134-.17.277-.233.426 0 .111-.081.142-.142.142-.06 0-.06 0-.06-.122 0-.121.273-1.327.303-1.439.03-.111.081-.263.132-.263.197.074.4.129.608.162.405 0 .932.07 1.095.07h5.198c.339.002.678-.022 1.013-.07l.385-.071c.071 0 .071.081.071.172v1.52c0 .122 0 .183-.101.183s-.091 0-.112-.233v-.163c-.06-.415-.374-.73-1.702-.76h-1.844zm8.44 7.479v-1.196a2.868 2.868 0 0 0-.313-1.449c-.102-.223-1.956-3.273-2.442-3.992a3.648 3.648 0 0 0-.943-1.014 1.257 1.257 0 0 0-.588-.223c-.07 0-.141 0-.141-.101s.05-.091.182-.091H272.333c.152 0 .183 0 .183.09 0 .092-.091.072-.213.133a.263.263 0 0 0-.182.243c.015.194.077.382.182.547l2.554 4.378c.263-.588 2.026-3.618 2.3-4.054.139-.211.22-.456.233-.709 0-.193-.06-.345-.223-.385-.162-.04-.203-.071-.203-.142 0-.07.081-.081.213-.081H279.437c.101 0 .182 0 .182.081s-.07.112-.182.112a1.287 1.287 0 0 0-.639.192 2.614 2.614 0 0 0-.73.71 42.276 42.276 0 0 0-2.644 4.407 3.212 3.212 0 0 0-.213 1.379v2.584c0 .395.152.699.568.76l.628.05c.081 0 .111 0 .111.081s-.07.112-.223.112h-3.06c-.152 0-.223 0-.223-.112 0-.111 0-.08.112-.08.14-.008.278-.025.415-.051.274-.061.406-.365.426-.76V17.5l.08-.03zm10.428-2.858a5.37 5.37 0 0 1 5.462-5.41c3.121 0 5.442 1.965 5.442 5.187a5.431 5.431 0 0 1-5.564 5.665 5.198 5.198 0 0 1-5.38-5.442h.04zm1.287-.425c0 3.222 1.946 5.31 4.438 5.31 1.247 0 3.82-.73 3.82-4.753 0-3.334-2.026-5.117-4.215-5.117s-4.053 1.52-4.053 4.56h.01zm12.515 1.621v-5.442c0-.476-.142-.689-.598-.79a2.35 2.35 0 0 0-.466 0c-.061 0-.112 0-.112-.081s.071-.112.223-.112h4.965c.206.021.413.021.619 0 .08 0 .131-.08.192-.08.06 0 .081.05.081.121 0 .07-.07.263-.111.649 0 .141 0 .75-.071.922-.071.172 0 .152-.112.152-.111 0-.09-.071-.09-.173a1.368 1.368 0 0 0-.133-.527 1.013 1.013 0 0 0-.942-.435h-2.128c-.081 0-.132 0-.132.152v3.83c0 .081 0 .122.102.122h1.773c.21.01.419.01.628 0 .324 0 .507-.061.628-.243.122-.183.102-.142.163-.142.06 0 .06 0 .06.111 0 .112-.06.314-.111.78 0 .274-.05.831-.05.923 0 .09 0 .263-.102.263-.101 0-.091-.05-.091-.122a3.151 3.151 0 0 0-.081-.496.861.861 0 0 0-.73-.507h-2.087c-.071 0-.102 0-.102.132v1.175c0 1.328 0 2.422.071 3.04 0 .396.132.7.547.76l.619.051c.08 0 .111 0 .111.081s-.07.112-.223.112h-3.06c-.152 0-.223 0-.223-.112 0-.111 0-.08.111-.08.14-.008.279-.025.416-.052.273-.06.344-.364.405-.76.071-.587.071-1.682.071-3.04l-.03-.182z"/>
  </g>
</svg>