<?xml version="1.0" encoding="UTF-8"?>
<svg width="26px" height="29px" viewBox="0 0 26 29" version="1.1" xmlns="http://www.w3.org/2000/svg" xmlns:xlink="http://www.w3.org/1999/xlink">
    <!-- Generator: Sketch 52.4 (67378) - http://www.bohemiancoding.com/sketch -->
    <title>if_Drinks_-06_1242347</title>
    <desc>Created with Sketch.</desc>
    <g id="*icons" stroke="none" stroke-width="1" fill="none" fill-rule="evenodd">
        <g id="if_Drinks_-06_1242347" fill="#FFFFFF" fill-rule="nonzero">
            <path d="M25.1986486,4.93783784 L19.6337838,4.93783784 L23.5135135,1.17567568 C23.7486486,0.940540541 23.7486486,0.587837838 23.5135135,0.352702703 C23.2783784,0.117567568 22.9256757,0.117567568 22.6905405,0.352702703 L17.9486486,4.93783784 L0.705405405,4.93783784 C0.47027027,4.93783784 0.235135135,5.09459459 0.156756757,5.29054054 C0.0783783784,5.48648649 0.117567568,5.76081081 0.313513514,5.91756757 L12.3837838,17.4783784 L12.3837838,27.6283784 L7.05405405,27.6283784 C6.74054054,27.6283784 6.46621622,27.9027027 6.46621622,28.2162162 C6.46621622,28.5297297 6.74054054,28.8040541 7.05405405,28.8040541 L18.8108108,28.8040541 C19.1243243,28.8040541 19.3986486,28.5297297 19.3986486,28.2162162 C19.3986486,27.9027027 19.1243243,27.6283784 18.8108108,27.6283784 L13.5202703,27.6283784 L13.5202703,17.4783784 L25.5905405,5.91756757 C25.7472973,5.76081081 25.8256757,5.48648649 25.7472973,5.29054054 C25.6689189,5.09459459 25.4337838,4.93783784 25.1986486,4.93783784 Z M16.6945946,6.11351351 L14.9310811,7.79864865 C14.5,7.44594595 13.9121622,7.28918919 13.3243243,7.28918919 C11.7175676,7.28918919 10.3851351,8.62162162 10.3851351,10.2283784 C10.3851351,10.777027 10.5418919,11.3256757 10.8162162,11.7567568 L10.5027027,12.0310811 C10.3459459,12.1486486 10.2675676,12.3054054 10.2675676,12.5405405 C10.2675676,12.7756757 10.4243243,12.9716216 10.6202703,13.0891892 C10.6986486,13.1283784 10.777027,13.1283784 10.8554054,13.1283784 C10.8554054,13.1283784 10.8945946,13.1283784 10.8945946,13.1283784 C10.972973,13.1283784 11.0513514,13.0891892 11.0905405,13.0891892 C11.1689189,13.05 11.2472973,12.9716216 11.3256757,12.8932432 L11.6,12.6189189 C12.0702703,12.9716216 12.6581081,13.1675676 13.3243243,13.1675676 C14.7351351,13.1675676 15.95,12.1486486 16.1851351,10.8162162 L18.8108108,10.8162162 L12.9324324,16.4594595 L2.15540541,6.11351351 L16.6945946,6.11351351 Z M11.5608108,10.2283784 C11.5608108,9.24864865 12.3445946,8.46486486 13.3243243,8.46486486 C14.3040541,8.46486486 15.0878378,9.24864865 15.0878378,10.2283784 C15.0878378,11.2081081 14.3040541,11.9918919 13.3243243,11.9918919 C12.3445946,11.9918919 11.5608108,11.1689189 11.5608108,10.2283784 Z M19.9864865,9.67972973 C19.9081081,9.64054054 19.8297297,9.64054054 19.7513514,9.64054054 L16.1851351,9.64054054 C16.1067568,9.28783784 15.95,8.93513514 15.7540541,8.62162162 L18.3797297,6.11351351 L23.7094595,6.11351351 L19.9864865,9.67972973 Z" id="XMLID_89_"></path>
            <path d="M6.93648649,7.44594595 C6.70135135,7.21081081 6.34864865,7.21081081 6.11351351,7.44594595 C5.87837838,7.68108108 5.87837838,8.03378378 6.11351351,8.26891892 L7.91621622,9.99324324 C8.03378378,10.1108108 8.19054054,10.15 8.30810811,10.15 C8.46486486,10.15 8.62162162,10.0716216 8.73918919,9.95405405 C8.97432432,9.71891892 8.97432432,9.36621622 8.73918919,9.13108108 L6.93648649,7.44594595 Z" id="XMLID_88_"></path>
        </g>
    </g>
</svg>