<?xml version="1.0" encoding="UTF-8"?>
<svg width="25px" height="25px" viewBox="0 0 25 25" version="1.1" xmlns="http://www.w3.org/2000/svg" xmlns:xlink="http://www.w3.org/1999/xlink">
    <!-- Generator: Sketch 52.4 (67378) - http://www.bohemiancoding.com/sketch -->
    <title>Group 3</title>
    <desc>Created with Sketch.</desc>
    <defs>
        <polygon id="path-1" points="0 0 25 0 25 25 0 25"></polygon>
    </defs>
    <g id="Symbols" stroke="none" stroke-width="1" fill="none" fill-rule="evenodd">
        <g id="icon/phone" transform="translate(-2.000000, -2.000000)">
            <g id="Group-3" transform="translate(2.000000, 2.000000)">
                <mask id="mask-2" fill="white">
                    <use xlink:href="#path-1"></use>
                </mask>
                <g id="Clip-2"></g>
                <path d="M17.2998182,16.1908547 L15.0759503,17.5158913 C14.5781627,17.8126154 13.9563739,17.7778416 13.4998562,17.4212504 C12.7107582,16.8050017 11.4401131,15.7680276 10.3346754,14.6626521 C9.2292377,13.557213 8.1923286,12.2865663 7.576017,11.4974673 C7.21948993,11.040949 7.18471613,10.4192231 7.48143988,9.92137112 L8.80647481,7.69750047 C9.06842476,7.25836913 9.07059016,6.71160444 8.81188832,6.27030769 L5.54888233,0.69642856 C5.23260626,0.157306472 4.60432126,-0.107891918 3.99673494,0.0410115009 C3.40647185,0.184501408 2.64017431,0.534469024 1.83693756,1.3387895 C-0.678240498,3.85403446 -2.01410244,8.09638076 7.44450067,17.554996 C16.9031675,27.0136112 21.1443619,25.6788939 23.6606227,23.1625662 C24.4660885,22.3570994 24.814973,21.5897818 24.9596091,20.9984353 C25.1062833,20.3919309 24.8454797,19.7680396 24.3073773,19.4528458 C22.9639365,18.6669313 20.0661192,16.9702093 18.7226783,16.1832758 C18.2813184,15.9245736 17.7390126,15.9299871 17.2998182,16.1908547 Z" id="Fill-1" fill="#FFFFFF" mask="url(#mask-2)"></path>
            </g>
        </g>
    </g>
</svg>