<?xml version="1.0" encoding="UTF-8"?>
<svg width="28px" height="24px" viewBox="0 0 28 24" version="1.1" xmlns="http://www.w3.org/2000/svg" xmlns:xlink="http://www.w3.org/1999/xlink">
    <!-- Generator: Sketch 52.4 (67378) - http://www.bohemiancoding.com/sketch -->
    <title>speaker</title>
    <desc>Created with Sketch.</desc>
    <g id="*icons" stroke="none" stroke-width="1" fill="none" fill-rule="evenodd">
        <g id="speaker" transform="translate(1.000000, 1.000000)" fill-rule="nonzero" stroke="#FFFFFF" stroke-width="1.4">
            <path d="M21.0082095,21.4271042 C24.0492494,18.9517328 25.9917905,15.1786142 25.9917905,10.9517909 C25.9917905,7.01282235 24.3048217,3.46786651 21.6139609,1" id="Oval-Copy" stroke-linecap="round"></path>
            <path d="M18.0082095,17.4704169 C19.8308674,16.0040901 20.9972769,13.7551726 20.9972769,11.2338256 C20.9972769,8.71406325 19.8323332,6.46638814 18.0116455,5" id="Oval-Copy-2" stroke-linecap="round"></path>
            <path d="M13.0082095,0.700000401 L13.0082095,21.2132406 C13.0082095,21.5998399 12.6948089,21.9132406 12.3082095,21.9132406 C12.1153029,21.9132406 11.9309469,21.8336323 11.7986753,21.6932143 L6.12822085,15.6735292 C5.99594921,15.5331112 5.81159326,15.4535029 5.61868657,15.4535029 L0.708209547,15.4535029 C0.321610222,15.4535029 0.0082095466,15.1401023 0.0082095466,14.7535029 L0.0082095466,6.95853921 C0.0082095466,6.57193988 0.321610222,6.25853921 0.708209547,6.25853921 L5.62545687,6.25853921 C5.81438628,6.25853921 5.99529346,6.18216988 6.12707053,6.04678477 L11.8065959,0.211754833 C12.0762465,-0.0652787429 12.5194215,-0.0712638421 12.7964551,0.198386739 C12.9318402,0.33016381 13.0082095,0.511070986 13.0082095,0.700000401 Z" id="Path-4-Copy"></path>
        </g>
    </g>
</svg>