<svg width="19px" height="22px" viewBox="0 0 19 22" version="1.1" xmlns="http://www.w3.org/2000/svg" xmlns:xlink="http://www.w3.org/1999/xlink">
    <g id="FORM-UPDATE---19/12/18" stroke="none" stroke-width="1" fill-rule="evenodd">
        <g id="Form" transform="translate(-675.000000, -1499.000000)" fill-rule="nonzero">
            <g id="Group-2-Copy-4" transform="translate(675.000000, 1499.000000)">
                <path d="M13,3 L13,0 L14,0 L14,3 L19,3 L19,5 L19,20 L19,22 L2,22 L0,22 L0,3 L2,3 L5,3 L5,0 L6,0 L6,3 L13,3 Z M13,5 L6,5 L6,8 L5,8 L5,5 L2,5 L2,20 L17,20 L17,5 L14,5 L14,8 L13,8 L13,5 Z" id="Combined-Shape"></path>
                <rect id="Rectangle-12" x="5" y="10" width="1" height="1"></rect>
                <rect id="Rectangle-12-Copy-4" x="7" y="10" width="1" height="1"></rect>
                <rect id="Rectangle-12-Copy-8" x="9" y="10" width="1" height="1"></rect>
                <rect id="Rectangle-12-Copy-12" x="11" y="10" width="1" height="1"></rect>
                <rect id="Rectangle-12-Copy-16" x="13" y="10" width="1" height="1"></rect>
                <rect id="Rectangle-12-Copy" x="5" y="12" width="1" height="1"></rect>
                <rect id="Rectangle-12-Copy-5" x="7" y="12" width="1" height="1"></rect>
                <rect id="Rectangle-12-Copy-9" x="9" y="12" width="1" height="1"></rect>
                <rect id="Rectangle-12-Copy-13" x="11" y="12" width="1" height="1"></rect>
                <rect id="Rectangle-12-Copy-17" x="13" y="12" width="1" height="1"></rect>
                <rect id="Rectangle-12-Copy-2" x="5" y="14" width="1" height="1"></rect>
                <rect id="Rectangle-12-Copy-6" x="7" y="14" width="1" height="1"></rect>
                <rect id="Rectangle-12-Copy-10" x="9" y="14" width="1" height="1"></rect>
                <rect id="Rectangle-12-Copy-14" x="11" y="14" width="1" height="1"></rect>
                <rect id="Rectangle-12-Copy-18" x="13" y="14" width="1" height="1"></rect>
                <rect id="Rectangle-12-Copy-3" x="5" y="16" width="1" height="1"></rect>
                <rect id="Rectangle-12-Copy-7" x="7" y="16" width="1" height="1"></rect>
                <rect id="Rectangle-12-Copy-11" x="9" y="16" width="1" height="1"></rect>
                <rect id="Rectangle-12-Copy-15" x="11" y="16" width="1" height="1"></rect>
                <rect id="Rectangle-12-Copy-19" x="13" y="16" width="1" height="1"></rect>
            </g>
        </g>
    </g>
</svg>