<svg xmlns="http://www.w3.org/2000/svg" width="17" height="17" viewBox="0 0 17 17">
  <g fill="none" fill-rule="evenodd">
    <circle cx="8.5" cy="8.5" r="8.5" fill="#771B4A" fill-rule="nonzero"/>
    <path fill="#FFF" d="M4.49224116,10.3780695 C4.34616203,10.4962047 4.18134483,10.6016172 3.99765989,10.6942438 C3.81397495,10.7869651 3.61262177,10.8610285 3.39360033,10.916655 C3.1745789,10.9721868 2.63791803,11 2.37419106,11 C1.81837068,11 1.39216067,10.8714466 1.09543136,10.6143399 C0.798669639,10.3572016 0.502685964,9.99935479 0.502685964,9.54073626 C0.502685964,9.35437809 0.520354212,9.1308935 0.551930127,8.87868014 C0.565967468,8.87839601 1.15339618,5.57496613 1.15339618,5.57496613 C1.16746595,5.51482513 1.18043347,5.45228481 1.19226633,5.38731359 C1.2039371,5.32250021 1.21457047,5.26112798 1.22403676,5.20316532 C1.23347063,5.14529736 1.24050551,5.09547978 1.24527107,5.05377571 C1.24987454,5.01207163 1.25233837,4.98198535 1.25233837,4.96342214 C1.25233837,4.8337954 1.23820377,4.729551 1.20990216,4.65072051 C1.18163296,4.57201631 1.13686259,4.51174903 1.07568831,4.47004495 C1.01441677,4.42837245 0.935476989,4.40055921 0.83899863,4.38666838 C0.742390596,4.37277754 0.625812579,4.36580055 0.489232161,4.36580055 C0.489232161,4.36580055 0,4.28567569 0,3.96426073 C0,3.54399984 0.65910669,3.60833966 0.623997126,3.60833966 L3.53575678,3.60833966 C4.37303722,3.60833966 3.92270762,5.03316044 4.04294896,4.47844259 C3.75234681,5.81897127 3.3759645,7.98480494 3.3759645,7.98480494 C3.31942611,8.24431098 3.27228917,8.36052044 3.23468336,8.58517312 C3.19691545,8.80988894 3.17814496,9.02188202 3.17814496,9.22102607 C3.17814496,9.4294833 3.221651,9.58932261 3.30882516,9.70048086 C3.39593449,9.81173381 3.5195798,9.86726558 3.67976111,9.86726558 C3.83044371,9.86726558 3.96942312,9.83948391 4.09660208,9.783889 C4.31954619,9.68643217 4.76131723,9.30939072 4.93787003,9.55399569 C5.16671436,9.87095928 4.70536237,10.2055074 4.49224116,10.3780695 M2.81008296,0 C2.79379168,0.12168282 2.78825264,0.22083766 2.77359049,0.339823468 C2.76772563,0.339982116 2.77766331,0.241303219 2.81008296,0 M2.87084713,2.96086892 C2.05541697,2.96086892 1.39439757,2.31071472 1.39439757,1.50867688 C1.39439757,0.70663903 2.05541697,0.0564848328 2.87084713,0.0564848328 C3.68627729,0.0564848328 4.34729669,0.70663903 4.34729669,1.50867688 C4.34729669,2.31071472 3.68627729,2.96086892 2.87084713,2.96086892" transform="translate(6 3)"/>
  </g>
</svg>
