<svg xmlns="http://www.w3.org/2000/svg" viewBox="0 0 30 30">
    <path d="M22.223 9.339a1.338 1.338 0 1 1-2.677 0 1.338 1.338 0 0 1 2.677 0"/>
    <path d="M24.316 19.726c-.05 1.092-.232 1.685-.384 2.08a3.466 3.466 0 0 1-.839 1.287 3.469 3.469 0 0 1-1.288.838c-.394.153-.987.336-2.079.385-1.18.055-1.535.066-4.526.066-2.99 0-3.345-.011-4.526-.066-1.092-.049-1.685-.232-2.08-.385a3.469 3.469 0 0 1-1.287-.838 3.476 3.476 0 0 1-.839-1.287c-.152-.395-.335-.988-.385-2.08-.054-1.182-.065-1.535-.065-4.526 0-2.991.011-3.345.065-4.525.05-1.093.233-1.686.385-2.08.204-.523.447-.896.839-1.288a3.467 3.467 0 0 1 1.288-.838c.394-.154.987-.336 2.079-.386 1.18-.054 1.535-.065 4.526-.065 2.99 0 3.344.011 4.526.065 1.092.05 1.685.232 2.08.386.522.203.895.446 1.287.838.392.392.635.765.839 1.288.152.394.335.987.384 2.08.054 1.18.066 1.534.066 4.525 0 2.99-.012 3.344-.066 4.526m2.017-9.143c-.055-1.192-.244-2.008-.521-2.72A5.486 5.486 0 0 0 24.52 5.88a5.497 5.497 0 0 0-1.984-1.29c-.712-.278-1.526-.467-2.718-.522C18.624 4.013 18.241 4 15.2 4c-3.042 0-3.423.013-4.617.067-1.193.055-2.007.244-2.72.521A5.49 5.49 0 0 0 5.88 5.88a5.499 5.499 0 0 0-1.292 1.984c-.277.712-.466 1.528-.521 2.72C4.013 11.777 4 12.159 4 15.2c0 3.042.013 3.423.067 4.618.055 1.192.244 2.006.52 2.719.287.736.67 1.36 1.293 1.983a5.48 5.48 0 0 0 1.984 1.291c.712.278 1.526.467 2.719.522 1.194.054 1.575.067 4.617.067 3.041 0 3.424-.013 4.618-.067 1.192-.055 2.006-.244 2.718-.522a5.486 5.486 0 0 0 1.984-1.29 5.483 5.483 0 0 0 1.292-1.984c.277-.713.466-1.527.521-2.72.055-1.194.067-1.575.067-4.617 0-3.041-.012-3.423-.067-4.617"/>
    <path d="M15.329 19.048a3.718 3.718 0 1 1 0-7.437 3.718 3.718 0 0 1 0 7.437m0-9.448a5.729 5.729 0 1 0 0 11.457 5.729 5.729 0 0 0 0-11.457"/>
</svg>