<svg xmlns="http://www.w3.org/2000/svg" width="21" height="16" viewBox="0 0 21 16">
  <path fill="#771B4A" fill-rule="evenodd" d="M384.169767,0 L384.169767,1.17365269 C382.476736,1.78044216 381.150005,2.73452443 380.189535,4.03592814 C379.229065,5.33733186 378.748837,6.69061174 378.748837,8.09580838 C378.748837,8.39920311 378.797674,8.62275377 378.895349,8.76646707 C378.960465,8.86227593 379.033721,8.91017964 379.115116,8.91017964 C379.196512,8.91017964 379.318604,8.85429198 379.481395,8.74251497 C380.002328,8.37524766 380.661624,8.19161677 381.459302,8.19161677 C382.387214,8.19161677 383.209299,8.56287054 383.925581,9.30538922 C384.641864,10.0479079 385,10.9301346 385,11.9520958 C385,13.0219614 384.588958,13.9640678 383.76686,14.7784431 C382.944763,15.5928184 381.94768,16 380.775581,16 C379.408133,16 378.227912,15.4491073 377.234884,14.3473054 C376.241856,13.2455035 375.745349,11.7684723 375.745349,9.91616766 C375.745349,7.76046826 376.420923,5.82835186 377.772093,4.11976048 C379.123263,2.4111691 381.255799,1.03792934 384.169767,0 Z M372.424419,0 L372.424419,1.17365269 C370.731387,1.78044216 369.404656,2.73452443 368.444186,4.03592814 C367.483716,5.33733186 367.003488,6.69061174 367.003488,8.09580838 C367.003488,8.39920311 367.052325,8.62275377 367.15,8.76646707 C367.215117,8.86227593 367.288372,8.91017964 367.369767,8.91017964 C367.451163,8.91017964 367.573255,8.85429198 367.736047,8.74251497 C368.256979,8.37524766 368.916275,8.19161677 369.713953,8.19161677 C370.641865,8.19161677 371.46395,8.56287054 372.180233,9.30538922 C372.896515,10.0479079 373.254651,10.9301346 373.254651,11.9520958 C373.254651,13.0219614 372.843609,13.9640678 372.021512,14.7784431 C371.199414,15.5928184 370.202331,16 369.030233,16 C367.662784,16 366.482563,15.4491073 365.489535,14.3473054 C364.496507,13.2455035 364,11.7684723 364,9.91616766 C364,7.76046826 364.675575,5.82835186 366.026744,4.11976048 C367.377914,2.4111691 369.510451,1.03792934 372.424419,0 Z" transform="translate(-364)"/>
</svg>
