<svg xmlns="http://www.w3.org/2000/svg" width="26" height="20" viewBox="0 0 26 20">
  <path fill="#771B4A" fill-rule="evenodd" d="M25.0131926,0 L25.0131926,1.46706587 C23.0008694,2.22555269 21.4239283,3.41815554 20.2823219,5.04491018 C19.1407155,6.67166482 18.5699208,8.36326467 18.5699208,10.1197605 C18.5699208,10.4990039 18.6279678,10.7784422 18.7440633,10.9580838 C18.8214604,11.0778449 18.9085307,11.1377246 19.005277,11.1377246 C19.1020234,11.1377246 19.2471406,11.067865 19.4406332,10.9281437 C20.0598096,10.4690596 20.8434429,10.239521 21.7915567,10.239521 C22.8944646,10.239521 23.8715877,10.7035882 24.7229551,11.6317365 C25.5743226,12.5598849 26,13.6626683 26,14.9401198 C26,16.2774518 25.5114385,17.4550847 24.5343008,18.4730539 C23.5571631,19.4910231 22.3720386,20 20.9788918,20 C19.3535539,20 17.9507535,19.3113841 16.7704485,17.9341317 C15.5901436,16.5568793 15,14.7105904 15,12.3952096 C15,9.70058533 15.8029823,7.28543982 17.408971,5.1497006 C19.0149597,3.01396138 21.5496749,1.29741168 25.0131926,0 Z M10.0131926,0 L10.0131926,1.46706587 C8.00086945,2.22555269 6.42392831,3.41815554 5.2823219,5.04491018 C4.14071549,6.67166482 3.56992084,8.36326467 3.56992084,10.1197605 C3.56992084,10.4990039 3.62796776,10.7784422 3.74406332,10.9580838 C3.82146037,11.0778449 3.90853074,11.1377246 4.00527704,11.1377246 C4.10202335,11.1377246 4.24714063,11.067865 4.44063325,10.9281437 C5.0598096,10.4690596 5.84344293,10.239521 6.79155673,10.239521 C7.89446462,10.239521 8.87158765,10.7035882 9.72295515,11.6317365 C10.5743226,12.5598849 11,13.6626683 11,14.9401198 C11,16.2774518 10.5114385,17.4550847 9.53430079,18.4730539 C8.5571631,19.4910231 7.37203863,20 5.97889182,20 C4.35355388,20 2.95075348,19.3113841 1.77044855,17.9341317 C0.590143615,16.5568793 0,14.7105904 0,12.3952096 C0,9.70058533 0.802982296,7.28543982 2.40897098,5.1497006 C4.01495966,3.01396138 6.54967485,1.29741168 10.0131926,0 Z"/>
</svg>
