<svg xmlns="http://www.w3.org/2000/svg" width="13" height="18" viewBox="0 0 13 18">
  <g fill="#0F6CB5">
    <path d="M9 .560142208C9 .250839423 8.75562899 0 8.45516022 0L4.54483978 0C4.24379467 0 4 .250839423 4 .560142208L4 1 9 1 9 .560142208zM12.9817648 17.8923911L11.0745702 15.1077876C11.0344866 15.0480844 10.9394593 15 10.8624207 15L9.08759956 15C9.01075647 15 8.97849411 15.0498719 9.01505812 15.1115414L10.6594611 17.8884586C10.6958296 17.9499494 10.7873374 18 10.8641805 18L12.9164579 18C12.9931055 18 13.0222394 17.9517369 12.9817648 17.8923911zM3.91239901 15L2.13754886 15C2.06070452 15 1.96567564 15.0480872 1.9253959 15.1077941L.0183656665 17.8925635C-.0223051312 17.951734.0068292383 18 .0834780492 18L2.1359846 18C2.21263341 18 2.30414271 17.9499464 2.34070732 17.8886307L3.98494163 15.1115481C4.02150624 15.0498749 3.98924335 15 3.91239901 15zM2.44570943 14L11.5542906 14C12.3527952 14 13 13.344267 13 12.5352404L13 3.92972586C13 2.31187922 11.7055905 1 10.1083772 1L3.89162277 1C2.29440952 1 1 2.31187922 1 3.92993246L1 12.5352404C1 13.3444736 1.64720476 14 2.44570943 14zM3.99970995 12C3.44783912 12 3 11.5521176 3 10.9998066 3 10.4474956 3.44764575 10 3.99970995 10 4.55216088 10 5 10.4474956 5 10.9998066 5 11.552311 4.55216088 12 3.99970995 12zM10.0003867 12C9.44798917 12 9 11.5521176 9 10.9998066 9 10.4474956 9.44760247 10 10.0003867 10 10.5522042 10 11 10.4474956 11 10.9998066 11 11.552311 10.5523975 12 10.0003867 12zM2 3.51161964C2 2.67649776 2.63115334 2 3.40985418 2L9.59014582 2C10.3688467 2 11 2.67649776 11 3.51161964L11 7.69767607C11 7.86461517 10.8739284 8 10.7180292 8L2.28197084 8C2.12607159 8 2 7.86461517 2 7.69767607L2 3.51161964z"/>
  </g>
</svg>
