<svg xmlns="http://www.w3.org/2000/svg" viewBox="0 0 30 30">
  <path fill-rule="nonzero" d="M9.805 26.4c10.567 0 16.346-8.619 16.346-16.093 0-.244 0-.488-.017-.73A11.59 11.59 0 0 0 29 6.648c-1.048.457-2.16.757-3.3.89a5.692 5.692 0 0 0 2.526-3.129 11.623 11.623 0 0 1-3.648 1.373c-1.78-1.864-4.61-2.32-6.902-1.113-2.291 1.208-3.475 3.779-2.888 6.271-4.619-.228-8.922-2.376-11.84-5.909-1.524 2.584-.745 5.89 1.78 7.55a5.77 5.77 0 0 1-2.608-.708v.072c0 2.692 1.928 5.011 4.609 5.544a5.823 5.823 0 0 1-2.594.097c.752 2.304 2.91 3.883 5.367 3.928A11.643 11.643 0 0 1 1 23.86a16.45 16.45 0 0 0 8.805 2.537"/>
</svg>